<mxfile host="app.diagrams.net" modified="2021-12-13T03:21:10.268Z" agent="5.0 (Macintosh; Intel Mac OS X 10_15_7) AppleWebKit/537.36 (KHTML, like Gecko) Chrome/96.0.4664.93 Safari/537.36" etag="Nm97z1nM9FX4jueq50gh" version="15.9.4" type="github">
  <diagram id="9Mjunr-k3OjxaksQ0L1E" name="Page-1">
    <mxGraphModel dx="1701" dy="2745" grid="1" gridSize="10" guides="1" tooltips="1" connect="1" arrows="1" fold="1" page="1" pageScale="1" pageWidth="850" pageHeight="1100" math="0" shadow="0">
      <root>
        <mxCell id="0" />
        <mxCell id="1" parent="0" />
        <mxCell id="fvfcvdUlLOE0mojElsZq-10" value="" style="rounded=0;whiteSpace=wrap;html=1;fontSize=13;fillColor=#000000;" vertex="1" parent="1">
          <mxGeometry x="-840" y="-1630" width="600" height="160" as="geometry" />
        </mxCell>
        <mxCell id="fvfcvdUlLOE0mojElsZq-1" value="&lt;div style=&quot;color: rgb(212 , 212 , 212) ; background-color: rgb(30 , 30 , 30) ; font-family: &amp;#34;menlo&amp;#34; , &amp;#34;monaco&amp;#34; , &amp;#34;courier new&amp;#34; , monospace ; font-weight: normal ; font-size: 16px ; line-height: 24px&quot;&gt;&lt;div&gt;&lt;span style=&quot;color: #569cd6&quot;&gt;class&lt;/span&gt;&lt;span style=&quot;color: #d4d4d4&quot;&gt; Circle {&lt;/span&gt;&lt;/div&gt;&lt;div&gt;&lt;span style=&quot;color: #d4d4d4&quot;&gt;    &lt;/span&gt;&lt;span style=&quot;color: #569cd6&quot;&gt;public&lt;/span&gt;&lt;span style=&quot;color: #d4d4d4&quot;&gt; &lt;/span&gt;&lt;span style=&quot;color: #569cd6&quot;&gt;int&lt;/span&gt;&lt;span style=&quot;color: #d4d4d4&quot;&gt; radius&lt;/span&gt;&lt;span style=&quot;color: #569cd6&quot;&gt;;&lt;/span&gt;&lt;/div&gt;&lt;div&gt;&lt;span style=&quot;color: #d4d4d4&quot;&gt;    &lt;/span&gt;&lt;span style=&quot;color: #569cd6&quot;&gt;public&lt;/span&gt;&lt;span style=&quot;color: #d4d4d4&quot;&gt; Circle(&lt;/span&gt;&lt;span style=&quot;color: #569cd6&quot;&gt;int&lt;/span&gt;&lt;span style=&quot;color: #d4d4d4&quot;&gt; r) { &lt;/span&gt;&lt;/div&gt;&lt;div&gt;&lt;span style=&quot;color: #d4d4d4&quot;&gt;        radius = r&lt;/span&gt;&lt;span style=&quot;color: #569cd6&quot;&gt;;&lt;/span&gt;&lt;span style=&quot;color: #d4d4d4&quot;&gt; &lt;/span&gt;&lt;/div&gt;&lt;div&gt;&lt;span style=&quot;color: #d4d4d4&quot;&gt;    }&lt;/span&gt;&lt;/div&gt;&lt;div&gt;&lt;span style=&quot;color: #d4d4d4&quot;&gt;}&lt;/span&gt;&lt;/div&gt;&lt;br&gt;&lt;div&gt;&lt;span style=&quot;color: #569cd6&quot;&gt;class&lt;/span&gt;&lt;span style=&quot;color: #d4d4d4&quot;&gt; Cylinder {&lt;/span&gt;&lt;/div&gt;&lt;div&gt;&lt;span style=&quot;color: #d4d4d4&quot;&gt;    &lt;/span&gt;&lt;span style=&quot;color: #569cd6&quot;&gt;public&lt;/span&gt;&lt;span style=&quot;color: #d4d4d4&quot;&gt; Circle base&lt;/span&gt;&lt;span style=&quot;color: #569cd6&quot;&gt;;&lt;/span&gt;&lt;/div&gt;&lt;div&gt;&lt;span style=&quot;color: #d4d4d4&quot;&gt;    &lt;/span&gt;&lt;span style=&quot;color: #569cd6&quot;&gt;public&lt;/span&gt;&lt;span style=&quot;color: #d4d4d4&quot;&gt; &lt;/span&gt;&lt;span style=&quot;color: #569cd6&quot;&gt;int&lt;/span&gt;&lt;span style=&quot;color: #d4d4d4&quot;&gt; height&lt;/span&gt;&lt;span style=&quot;color: #569cd6&quot;&gt;;&lt;/span&gt;&lt;/div&gt;&lt;div&gt;&lt;span style=&quot;color: #d4d4d4&quot;&gt;    &lt;/span&gt;&lt;span style=&quot;color: #569cd6&quot;&gt;public&lt;/span&gt;&lt;span style=&quot;color: #d4d4d4&quot;&gt; Cylinder(&lt;/span&gt;&lt;span style=&quot;color: #569cd6&quot;&gt;int&lt;/span&gt;&lt;span style=&quot;color: #d4d4d4&quot;&gt; r&lt;/span&gt;&lt;span style=&quot;color: #569cd6&quot;&gt;,&lt;/span&gt;&lt;span style=&quot;color: #d4d4d4&quot;&gt; &lt;/span&gt;&lt;span style=&quot;color: #569cd6&quot;&gt;int&lt;/span&gt;&lt;span style=&quot;color: #d4d4d4&quot;&gt; h) { &lt;/span&gt;&lt;/div&gt;&lt;div&gt;&lt;span style=&quot;color: #d4d4d4&quot;&gt;        base = &lt;/span&gt;&lt;span style=&quot;color: #569cd6&quot;&gt;new&lt;/span&gt;&lt;span style=&quot;color: #d4d4d4&quot;&gt; Circle(r)&lt;/span&gt;&lt;span style=&quot;color: #569cd6&quot;&gt;;&lt;/span&gt;&lt;span style=&quot;color: #d4d4d4&quot;&gt; &lt;/span&gt;&lt;/div&gt;&lt;div&gt;&lt;span style=&quot;color: #d4d4d4&quot;&gt;        height = h&lt;/span&gt;&lt;span style=&quot;color: #569cd6&quot;&gt;;&lt;/span&gt;&lt;span style=&quot;color: #d4d4d4&quot;&gt; &lt;/span&gt;&lt;/div&gt;&lt;div&gt;&lt;span style=&quot;color: #d4d4d4&quot;&gt;    }&lt;/span&gt;&lt;/div&gt;&lt;div&gt;&lt;span style=&quot;color: #d4d4d4&quot;&gt;}&lt;/span&gt;&lt;/div&gt;&lt;div&gt;&lt;span style=&quot;color: #d4d4d4&quot;&gt;...&lt;/span&gt;&lt;/div&gt;&lt;div&gt;&lt;span style=&quot;color: #d4d4d4&quot;&gt;Cylinder c = new Cylinder(5&lt;/span&gt;&lt;span style=&quot;color: #569cd6&quot;&gt;,&lt;/span&gt;&lt;span style=&quot;color: #d4d4d4&quot;&gt; 10)&lt;/span&gt;&lt;span style=&quot;color: #569cd6&quot;&gt;;&lt;/span&gt;&lt;/div&gt;&lt;/div&gt;" style="text;html=1;strokeColor=none;fillColor=none;align=left;verticalAlign=middle;whiteSpace=wrap;rounded=0;" vertex="1" parent="1">
          <mxGeometry x="-800" y="-2200" width="530" height="610" as="geometry" />
        </mxCell>
        <mxCell id="fvfcvdUlLOE0mojElsZq-2" value="c&lt;br style=&quot;font-size: 13px;&quot;&gt;(Cylinder reference)" style="rounded=0;whiteSpace=wrap;html=1;fillColor=#ffe6cc;strokeColor=#d79b00;fontSize=13;" vertex="1" parent="1">
          <mxGeometry x="-800" y="-1600" width="120" height="40" as="geometry" />
        </mxCell>
        <mxCell id="fvfcvdUlLOE0mojElsZq-3" value="base&lt;br style=&quot;font-size: 13px;&quot;&gt;(Circle reference)" style="rounded=0;whiteSpace=wrap;html=1;fillColor=#fff2cc;strokeColor=#d6b656;fontSize=13;" vertex="1" parent="1">
          <mxGeometry x="-600" y="-1600" width="120" height="40" as="geometry" />
        </mxCell>
        <mxCell id="fvfcvdUlLOE0mojElsZq-4" value="height = 10" style="rounded=0;whiteSpace=wrap;html=1;fillColor=#f8cecc;strokeColor=#b85450;fontSize=13;" vertex="1" parent="1">
          <mxGeometry x="-600" y="-1560" width="120" height="40" as="geometry" />
        </mxCell>
        <mxCell id="fvfcvdUlLOE0mojElsZq-5" value="radius = 5" style="rounded=0;whiteSpace=wrap;html=1;fillColor=#dae8fc;strokeColor=#6c8ebf;fontSize=13;" vertex="1" parent="1">
          <mxGeometry x="-400" y="-1600" width="120" height="40" as="geometry" />
        </mxCell>
        <mxCell id="fvfcvdUlLOE0mojElsZq-6" value="" style="endArrow=classic;html=1;rounded=0;entryX=0;entryY=0.5;entryDx=0;entryDy=0;strokeWidth=3;fontSize=13;strokeColor=#0000FF;" edge="1" parent="1" target="fvfcvdUlLOE0mojElsZq-3">
          <mxGeometry width="50" height="50" relative="1" as="geometry">
            <mxPoint x="-720" y="-1580" as="sourcePoint" />
            <mxPoint x="-670" y="-1630" as="targetPoint" />
          </mxGeometry>
        </mxCell>
        <mxCell id="fvfcvdUlLOE0mojElsZq-7" value="" style="endArrow=classic;html=1;rounded=0;entryX=0;entryY=0.5;entryDx=0;entryDy=0;strokeWidth=3;fontSize=13;strokeColor=#0000FF;" edge="1" parent="1">
          <mxGeometry width="50" height="50" relative="1" as="geometry">
            <mxPoint x="-520.0000000000001" y="-1580.38" as="sourcePoint" />
            <mxPoint x="-400" y="-1580.38" as="targetPoint" />
          </mxGeometry>
        </mxCell>
        <mxCell id="fvfcvdUlLOE0mojElsZq-8" value="Cylinder instance" style="text;html=1;strokeColor=none;fillColor=none;align=center;verticalAlign=middle;whiteSpace=wrap;rounded=0;fontSize=13;" vertex="1" parent="1">
          <mxGeometry x="-570" y="-1510" width="60" height="30" as="geometry" />
        </mxCell>
        <mxCell id="fvfcvdUlLOE0mojElsZq-9" value="Circle instance" style="text;html=1;strokeColor=none;fillColor=none;align=center;verticalAlign=middle;whiteSpace=wrap;rounded=0;fontSize=13;" vertex="1" parent="1">
          <mxGeometry x="-370" y="-1550" width="60" height="30" as="geometry" />
        </mxCell>
      </root>
    </mxGraphModel>
  </diagram>
</mxfile>
